<svg xmlns="http://www.w3.org/2000/svg" viewBox="0 0 150 150"><polygon points="82.01 35.6 69.79 35.6 69.79 45.19 61.2 45.19 61.2 130.87 78.54 130.87 78.54 125.96 82.01 125.96 82.01 35.6" fill="#a6dfff"/><rect x="89.6" y="23.54" width="17.34" height="107.33" fill="#62b9f4"/><rect x="45.1" y="56.37" width="22.23" height="74.5" fill="#62b9f4"/><polygon points="88.46 56.37 88.46 53.83 86.65 53.83 86.65 51.81 85.24 51.81 85.24 50.15 84.17 50.15 83.86 50.15 83.86 47.94 83.61 47.94 79.28 47.94 79.03 47.94 79.03 50.15 78.72 50.15 77.65 50.15 77.65 51.81 76.24 51.81 76.24 53.83 74.43 53.83 74.43 56.37 73.28 56.37 73.28 130.87 74.43 130.87 76.24 130.87 77.65 130.87 78.72 130.87 80.26 130.87 80.45 130.87 81.05 130.87 81.84 130.87 82.44 130.87 82.63 130.87 84.17 130.87 85.24 130.87 86.65 130.87 88.46 130.87 89.61 130.87 89.61 56.37 88.46 56.37" fill="#62b9f4"/><polygon points="45.32 23.54 35.34 48.02 35.34 130.64 55.3 130.64 55.3 48.02 45.32 23.54" fill="#62b9f4"/><polygon points="79.94 71.19 79.94 66.74 55.32 66.74 55.32 71.19 45.73 71.19 45.73 130.87 89.53 130.87 89.53 71.19 79.94 71.19" fill="#2783f2"/><polygon points="73.28 77.15 73.28 82.03 73.28 83.03 73.28 91.29 75.6 91.29 75.6 83.03 75.6 82.03 75.6 77.15 73.28 77.15" fill="#fff"/><polygon points="67.33 77.15 67.33 82.03 67.33 83.03 67.33 91.29 69.64 91.29 69.64 83.03 69.64 82.03 69.64 77.15 67.33 77.15" fill="#fff"/><polygon points="61.37 77.15 61.37 82.03 61.37 83.03 61.37 91.29 63.69 91.29 63.69 83.03 63.69 82.03 63.69 77.15 61.37 77.15" fill="#fff"/><polygon points="73.28 93.21 73.28 98.09 73.28 99.09 73.28 107.35 75.6 107.35 75.6 99.09 75.6 98.09 75.6 93.21 73.28 93.21" fill="#fff"/><polygon points="67.33 93.21 67.33 98.09 67.33 99.09 67.33 107.35 69.64 107.35 69.64 99.09 69.64 98.09 69.64 93.21 67.33 93.21" fill="#fff"/><polygon points="61.37 93.21 61.37 98.09 61.37 99.09 61.37 107.35 63.69 107.35 63.69 99.09 63.69 98.09 63.69 93.21 61.37 93.21" fill="#fff"/><polygon points="73.28 109.45 73.28 114.33 73.28 115.33 73.28 123.59 75.6 123.59 75.6 115.33 75.6 114.33 75.6 109.45 73.28 109.45" fill="#fff"/><polygon points="67.33 109.45 67.33 114.33 67.33 115.33 67.33 123.59 69.64 123.59 69.64 115.33 69.64 114.33 69.64 109.45 67.33 109.45" fill="#fff"/><polygon points="61.37 109.45 61.37 114.33 61.37 115.33 61.37 123.59 63.69 123.59 63.69 115.33 63.69 114.33 63.69 109.45 61.37 109.45" fill="#fff"/><polygon points="45.73 85.08 35.34 93.22 35.34 130.87 56.12 130.87 56.12 93.22 45.73 85.08" fill="#1f68dc"/><rect x="41.62" y="105.38" width="3.48" height="4.28" fill="#fff"/><rect x="46.36" y="105.38" width="3.48" height="4.28" fill="#fff"/><rect x="41.22" y="111.61" width="4.28" height="3.48" transform="translate(156.71 69.99) rotate(90)" fill="#fff"/><rect x="45.96" y="111.61" width="4.28" height="3.48" transform="translate(161.45 65.25) rotate(90)" fill="#fff"/><rect x="41.62" y="117.04" width="3.48" height="4.28" fill="#fff"/><rect x="46.36" y="117.04" width="3.48" height="4.28" fill="#fff"/><rect x="41.22" y="123.28" width="4.28" height="3.48" transform="translate(168.38 81.65) rotate(90)" fill="#fff"/><rect x="45.96" y="123.28" width="4.28" height="3.48" transform="translate(173.12 76.91) rotate(90)" fill="#fff"/><rect x="41.62" y="99.55" width="3.48" height="4.28" fill="#fff"/><rect x="46.36" y="99.55" width="3.48" height="4.28" fill="#fff"/><rect x="41.22" y="105.78" width="4.28" height="3.48" transform="translate(150.88 64.16) rotate(90)" fill="#fff"/><rect x="45.96" y="105.78" width="4.28" height="3.48" transform="translate(155.62 59.42) rotate(90)" fill="#fff"/><circle cx="45.73" cy="93.62" r="1.97" fill="#fff"/><polygon points="106.95 40.51 99.24 45.75 99.24 49.79 99.24 53.01 99.24 81.61 93.9 81.61 93.9 130.87 100.16 130.87 114.66 130.87 114.66 53.01 114.66 49.79 114.66 45.75 106.95 40.51" fill="#2783f2"/><rect x="107.49" y="48.39" width="2.96" height="4.28" fill="#fff"/><rect x="102.79" y="54.88" width="4.28" height="2.96" transform="translate(161.3 -48.57) rotate(90)" fill="#fff"/><rect x="106.83" y="54.88" width="4.28" height="2.96" transform="translate(165.33 -52.6) rotate(90)" fill="#fff"/><rect x="103.45" y="60.06" width="2.96" height="4.28" fill="#fff"/><rect x="107.49" y="60.06" width="2.96" height="4.28" fill="#fff"/><rect x="102.79" y="66.55" width="4.28" height="2.96" transform="translate(172.96 -36.9) rotate(90)" fill="#fff"/><rect x="106.83" y="66.55" width="4.28" height="2.96" transform="translate(177 -40.94) rotate(90)" fill="#fff"/><rect x="103.45" y="71.72" width="2.96" height="4.28" fill="#fff"/><rect x="107.49" y="71.72" width="2.96" height="4.28" fill="#fff"/><rect x="102.79" y="78.21" width="4.28" height="2.96" transform="translate(184.63 -25.24) rotate(90)" fill="#fff"/><rect x="106.83" y="78.21" width="4.28" height="2.96" transform="translate(188.66 -29.27) rotate(90)" fill="#fff"/><rect x="103.45" y="83.39" width="2.96" height="4.28" fill="#fff"/><rect x="107.49" y="83.39" width="2.96" height="4.28" fill="#fff"/><rect x="102.79" y="89.88" width="4.28" height="2.96" transform="translate(196.29 -13.57) rotate(90)" fill="#fff"/><rect x="106.83" y="89.88" width="4.28" height="2.96" transform="translate(200.33 -17.61) rotate(90)" fill="#fff"/><rect x="103.45" y="95.05" width="2.96" height="4.28" fill="#fff"/><rect x="107.49" y="95.05" width="2.96" height="4.28" fill="#fff"/><rect x="102.79" y="101.54" width="4.28" height="2.96" transform="translate(207.95 -1.91) rotate(90)" fill="#fff"/><rect x="106.83" y="101.54" width="4.28" height="2.96" transform="translate(211.99 -5.95) rotate(90)" fill="#fff"/><rect x="103.45" y="106.71" width="2.96" height="4.28" fill="#fff"/><rect x="107.49" y="106.71" width="2.96" height="4.28" fill="#fff"/><rect x="102.79" y="113.2" width="4.28" height="2.96" transform="translate(219.62 9.75) rotate(90)" fill="#fff"/><rect x="106.83" y="113.2" width="4.28" height="2.96" transform="translate(223.65 5.72) rotate(90)" fill="#fff"/><rect x="103.45" y="118.38" width="2.96" height="4.28" fill="#fff"/><rect x="107.49" y="118.38" width="2.96" height="4.28" fill="#fff"/><rect x="102.79" y="124.87" width="4.28" height="2.96" transform="translate(231.28 21.42) rotate(90)" fill="#fff"/><rect x="106.83" y="124.87" width="4.28" height="2.96" transform="translate(235.32 17.38) rotate(90)" fill="#fff"/><rect x="82.61" y="99.33" width="16.8" height="31.53" fill="#1f68dc"/><rect x="87.03" y="120.52" width="3.38" height="3.05" fill="#fff"/><rect x="91.63" y="120.52" width="3.38" height="3.05" fill="#fff"/><rect x="87.19" y="124.5" width="3.05" height="3.38" transform="translate(214.91 37.48) rotate(90)" fill="#fff"/><rect x="91.79" y="124.5" width="3.05" height="3.38" transform="translate(219.5 32.88) rotate(90)" fill="#fff"/><rect x="87.03" y="111.89" width="3.38" height="3.05" fill="#fff"/><rect x="91.63" y="111.89" width="3.38" height="3.05" fill="#fff"/><rect x="87.19" y="115.88" width="3.05" height="3.38" transform="translate(206.28 28.85) rotate(90)" fill="#fff"/><rect x="91.79" y="115.88" width="3.05" height="3.38" transform="translate(210.88 24.25) rotate(90)" fill="#fff"/><rect x="87.03" y="103.27" width="3.38" height="3.05" fill="#fff"/><rect x="91.63" y="103.27" width="3.38" height="3.05" fill="#fff"/><rect x="87.19" y="107.25" width="3.05" height="3.38" transform="translate(197.65 20.23) rotate(90)" fill="#fff"/><rect x="91.79" y="107.25" width="3.05" height="3.38" transform="translate(202.25 15.63) rotate(90)" fill="#fff"/><rect x="15" y="128.87" width="120" height="2" fill="#1f68dc"/></svg>