<svg id="circle_1" xmlns="http://www.w3.org/2000/svg" viewBox="0 0 109.38 111.58"><path d="M25.61,56.4H22.56A35,35,0,0,1,57.5,21.46v3.05A31.92,31.92,0,0,0,25.61,56.4Z" transform="translate(-2.81 -1.71)"/><path d="M57.5,101.79a45.17,45.17,0,0,1-17.29-3.41l1.16-2.82A42.35,42.35,0,0,0,92.61,32.73L95.14,31A45.39,45.39,0,0,1,57.5,101.79Z" transform="translate(-2.81 -1.71)"/><path d="M27.13,56.4H21A36.51,36.51,0,0,1,57.5,19.93V26A30.4,30.4,0,0,0,27.13,56.4Z" transform="translate(-2.81 -1.71)"/><path d="M21.53,97.59A54.69,54.69,0,1,1,112.19,56.4h-1.53A53.16,53.16,0,1,0,22.53,96.45Z" transform="translate(-2.81 -1.71)"/><path d="M57.5,100.64a44.18,44.18,0,0,1-40.77-27l.7-.3A43.43,43.43,0,0,0,57.5,99.88Z" transform="translate(-2.81 -1.71)"/><path d="M28.35,24.66l-1-1.13a44.69,44.69,0,0,1,18.6-10.24l.4,1.48A43.14,43.14,0,0,0,28.35,24.66Z" transform="translate(-2.81 -1.71)"/><path d="M57.5,113.29v-4.58a52.24,52.24,0,0,0,48.2-31.95l4.22,1.79A56.83,56.83,0,0,1,57.5,113.29Z" transform="translate(-2.81 -1.71)"/></svg>