<svg id="circle_2" xmlns="http://www.w3.org/2000/svg" viewBox="0 0 110 110"><path d="M49.81,27.63,49,24.77a33.93,33.93,0,0,1,41.5,24l-2.86.77A31,31,0,0,0,49.81,27.63Z" transform="translate(-2.5 -2.5)"/><path d="M15.31,68.89a43.77,43.77,0,0,1-1.15-17l2.94.39a41.06,41.06,0,0,0,71.7,32.2L91,86.37A44,44,0,0,1,15.31,68.89Z" transform="translate(-2.5 -2.5)"/><path d="M10.21,34.16a53,53,0,1,1,61.34,74.55l-.39-1.43A51.54,51.54,0,1,0,11.54,34.81Z" transform="translate(-2.5 -2.5)"/><path d="M16.38,68.61a42.83,42.83,0,0,1,15.07-45l.46.58A42.08,42.08,0,0,0,17.1,68.42Z" transform="translate(-2.5 -2.5)"/><path d="M80.22,22.23,81,21A43.28,43.28,0,0,1,95.27,35.82L94,36.57A41.72,41.72,0,0,0,80.22,22.23Z" transform="translate(-2.5 -2.5)"/><path d="M112.47,58.53c0-.34,0-.68,0-1s0-.72,0-1.08a55,55,0,1,0-56.59,56c.54,0,1.08,0,1.62,0s1,0,1.54,0A55,55,0,0,0,112.47,58.53Zm-55,50.2A51.23,51.23,0,1,1,108.73,57.5,51.29,51.29,0,0,1,57.5,108.73Z" transform="translate(-2.5 -2.5)" opacity="0"/></svg>