<svg id="circle_3" xmlns="http://www.w3.org/2000/svg" viewBox="0 0 110 110"><path d="M79.61,35.81l2.08-2.08a33.81,33.81,0,0,1,0,47.76L79.61,79.4A30.87,30.87,0,0,0,79.61,35.81Z" transform="translate(-2.5 -2.5)"/><path d="M32.84,45.93l2.64,1.32a20.64,20.64,0,0,0,1.67,21.4l-2.39,1.73A23.59,23.59,0,0,1,32.84,45.93Z" transform="translate(-2.5 -2.5)"/><path d="M26.79,26.59A43.86,43.86,0,0,1,40.94,17.1l1.14,2.73a40.54,40.54,0,0,0-13.2,8.85A40.91,40.91,0,0,0,50,97.77l-.56,2.9A43.86,43.86,0,0,1,26.79,26.59Z" transform="translate(-2.5 -2.5)"/><path d="M54.24,4.88A52.85,52.85,0,1,1,20.44,95l1-1A51.38,51.38,0,1,0,54.34,6.35Z" transform="translate(-2.5 -2.5)"/><path d="M27.58,27.37A42.7,42.7,0,0,1,73.9,18l-.27.68A42,42,0,0,0,28.1,27.89Z" transform="translate(-2.5 -2.5)"/><path d="M99.43,59.38l1.47.06a43.18,43.18,0,0,1-5.71,19.71l-1.28-.74A41.82,41.82,0,0,0,99.43,59.38Z" transform="translate(-2.5 -2.5)"/><g opacity="0"><path d="M57.5,112.5a55,55,0,1,1,55-55A55.06,55.06,0,0,1,57.5,112.5Zm0-106.23A51.23,51.23,0,1,0,108.73,57.5,51.29,51.29,0,0,0,57.5,6.27Z" transform="translate(-2.5 -2.5)"/></g></svg>