<?xml version="1.0" encoding="utf-8"?>
<!-- Generator: Adobe Illustrator 25.3.1, SVG Export Plug-In . SVG Version: 6.00 Build 0)  -->
<svg version="1.1" id="Layer_1" xmlns="http://www.w3.org/2000/svg" xmlns:xlink="http://www.w3.org/1999/xlink" x="0px" y="0px"
	 viewBox="0 0 510.4 596" enable-background="new 0 0 510.4 596" xml:space="preserve">
<path fill-rule="evenodd" clip-rule="evenodd" fill="#AA864D" d="M91.1,5.8l348.8,36.7c6.8,0.7,11.8,6.9,11.1,13.7l-2.8,25.7l28.6,3
	c6.8,0.7,11.8,6.9,11.1,13.7l-20,190.8c-0.7,6.9-6.9,11.8-13.7,11.1l-28.7-3L399.8,543c-0.8,6.8-6.9,11.8-13.7,11.1L37.3,517.4
	c-6.8-0.8-11.8-6.9-11.1-13.7L77.4,16.9C78.1,10.1,84.3,5.1,91.1,5.8L91.1,5.8z"/>
<path fill-rule="evenodd" clip-rule="evenodd" fill="#FFDC8C" d="M89.2,3L438,39.7c6.8,0.7,11.8,6.9,11.1,13.7l-2.7,25.7l28.6,3
	c6.8,0.7,11.8,6.9,11.1,13.7l-20,190.8c-0.8,6.8-6.9,11.8-13.7,11.1l-28.7-3l-25.8,245.5c-0.8,6.8-6.9,11.8-13.7,11.1L35.4,514.6
	c-6.8-0.7-11.8-6.9-11.1-13.7L75.5,14.2C76.2,7.3,82.4,2.3,89.2,3z"/>
<linearGradient id="SVGID_1_" gradientUnits="userSpaceOnUse" x1="137.6842" y1="209.5952" x2="468.2323" y2="476.6737">
	<stop  offset="0.371" style="stop-color:#000000;stop-opacity:0.3"/>
	<stop  offset="0.7334" style="stop-color:#878787;stop-opacity:0.15"/>
	<stop  offset="0.9156" style="stop-color:#000000;stop-opacity:0.1"/>
	<stop  offset="1" style="stop-color:#000000;stop-opacity:0"/>
</linearGradient>
<path opacity="0.5" fill-rule="evenodd" clip-rule="evenodd" fill="url(#SVGID_1_)" d="M40,512.2l130.5,53.6
	c15.1,6.2,31.3,9.1,47.6,8.5l51.2-1.8l173,18.3c11.3,1.2,21.5-7,22.8-18.3l40.1-362.4L429.7,64L40,512.2z"/>
<path fill-rule="evenodd" clip-rule="evenodd" fill="#BEBEC8" d="M97.8,22.4L420,56.3c6.3,0.7,10.9,6.3,10.3,12.7L383,518.6
	c-0.7,6.3-6.3,10.9-12.7,10.2L48.1,495c-6.3-0.7-10.9-6.3-10.3-12.7L85.1,32.6C85.8,26.3,91.5,21.7,97.8,22.4z"/>
<path fill-rule="evenodd" clip-rule="evenodd" fill="#DCDCE6" d="M62.7,24.3l323.6,17c6.3,0.3,11.2,5.7,10.9,12.1l-23.7,451.6
	c-0.3,6.3-5.7,11.2-12.1,10.9l-323.6-17c-6.3-0.3-11.2-5.7-10.9-12.1L50.6,35.2C51,28.8,56.4,24,62.7,24.3z"/>
<path fill-rule="evenodd" clip-rule="evenodd" fill="#FFFFFF" d="M13.9,36.9L338,19.1c6.4-0.3,11.8,4.5,12.2,10.9L375,482.3
	c0.3,6.4-4.5,11.8-10.9,12.2L40,512.2c-6.4,0.3-11.8-4.5-12.2-10.9L3,49C2.7,42.7,7.6,37.3,13.9,36.9z"/>
<path fill="#AEAEBA" d="M139.9,115.5c-2.9,0.1-5.3-2.1-5.4-5c-0.1-2.8,2-5.1,4.8-5.4l0,0l160.1-9.4c2.9-0.2,5.3,1.9,5.6,4.7
	c0.2,2.9-1.9,5.3-4.7,5.6c-0.1,0-0.2,0-0.2,0L139.9,115.5z M141.8,147.8c-2.9,0.1-5.3-2.1-5.4-5c-0.1-2.8,2-5.1,4.8-5.4l0,0
	l160.1-9.4c2.9-0.1,5.2,2.2,5.3,5.1c0.1,2.7-2,5-4.6,5.3H302L141.8,147.8z"/>
<path fill="#AEAEBA" d="M145.6,212.8c-2.9,0.1-5.2-2.2-5.3-5.1c-0.1-2.7,2-5,4.6-5.3h0.1l160.2-9.4c2.9-0.1,5.2,2.2,5.3,5.1
	c0.1,2.7-2,5-4.6,5.3h-0.1L145.6,212.8z M147.5,245.1c-2.9,0.2-5.3-2-5.5-4.9s2-5.3,4.9-5.5l0,0l160.1-9.4c2.9-0.2,5.3,1.9,5.6,4.7
	c0.2,2.9-1.9,5.3-4.7,5.6c-0.1,0-0.2,0-0.2,0l0,0L147.5,245.1z"/>
<path fill="#AEAEBA" d="M151.5,311.6c-2.9,0.2-5.3-2-5.5-4.8c-0.2-2.9,2-5.3,4.8-5.5l0,0h0.1l160.1-9.4c2.9-0.2,5.3,1.9,5.6,4.8
	c0.2,2.9-1.9,5.3-4.8,5.6c-0.1,0-0.1,0-0.2,0L151.5,311.6z M153.4,344c-2.9,0.2-5.3-2-5.5-4.8c-0.2-2.9,2-5.3,4.8-5.5h0.1l160.1-9.4
	c2.9-0.2,5.3,1.9,5.6,4.8c0.2,2.9-1.9,5.3-4.8,5.6c-0.1,0-0.1,0-0.2,0L153.4,344z"/>
<path fill="#AEAEBA" d="M64.7,102l30.7-1.8c7.4-0.4,13.8,5.2,14.2,12.6l1.8,30.6c0.4,7.4-5.2,13.8-12.6,14.2l-30.7,1.8
	c-7.4,0.5-13.8-5.2-14.3-12.6c0,0,0,0,0,0l0,0L52,116.3C51.6,108.8,57.3,102.5,64.7,102z M95.9,108.8l-30.7,1.8
	c-1.3,0.1-2.5,0.7-3.3,1.6c-0.8,1-1.3,2.2-1.2,3.5l1.8,30.6c0.1,1.3,0.7,2.4,1.6,3.3c1,0.9,2.2,1.3,3.5,1.2l30.7-1.8
	c1.3-0.1,2.5-0.6,3.3-1.6c0.8-0.9,1.3-2.2,1.2-3.5l-1.8-30.6c-0.1-1.3-0.7-2.5-1.6-3.3C98.4,109.2,97.2,108.8,95.9,108.8L95.9,108.8
	z"/>
<path fill="#AEAEBA" d="M70.4,199.4l30.7-1.8c7.4-0.4,13.8,5.2,14.2,12.6l0,0l1.8,30.6c0.4,7.4-5.2,13.8-12.6,14.2l-30.7,1.8
	c-7.4,0.5-13.8-5.2-14.3-12.6c0,0,0,0,0,0l0,0l-1.8-30.6C57.3,206.2,63,199.9,70.4,199.4C70.4,199.4,70.4,199.4,70.4,199.4
	L70.4,199.4z M101.6,206.2L70.9,208c-2.7,0.2-4.7,2.4-4.6,5.1c0,0,0,0,0,0l0,0l1.8,30.6c0.2,2.6,2.5,4.7,5.1,4.5l30.7-1.8
	c2.6-0.2,4.7-2.4,4.5-5.1l-1.8-30.6C106.6,208.1,104.3,206.1,101.6,206.2L101.6,206.2z"/>
<path fill="#AEAEBA" d="M76.2,298.2l30.7-1.8c7.4-0.4,13.8,5.2,14.2,12.6l0,0l1.8,30.6c0.4,7.4-5.2,13.8-12.6,14.2l-30.7,1.8
	c-7.4,0.5-13.8-5.2-14.2-12.6l0,0l-1.8-30.6C63.1,305.1,68.7,298.7,76.2,298.2C76.2,298.3,76.2,298.3,76.2,298.2L76.2,298.2z
	 M107.4,305.1l-30.7,1.8c-2.7,0.2-4.7,2.5-4.5,5.2c0,0,0,0,0,0l1.8,30.6c0.2,2.7,2.5,4.7,5.1,4.5l30.7-1.8c2.6-0.2,4.7-2.4,4.5-5.1
	l-1.8-30.6C112.4,307,110.1,305,107.4,305.1L107.4,305.1z"/>
<path fill="#4B90FF" d="M77.1,331c-1.8-1.5-2-4.2-0.4-6v0c1.6-1.8,4.3-2,6.1-0.4l6,5.2l13.5-15.1c1.5-1.8,4.2-2.1,6.1-0.6
	c1.8,1.5,2.1,4.2,0.6,6.1c-0.1,0.1-0.1,0.2-0.2,0.2l-16.4,18.2c-1.6,1.8-4.3,1.9-6.1,0.4L77.1,331z"/>
<path fill="#4B90FF" d="M71.3,231.4c-1.8-1.5-2-4.2-0.4-6l0,0c1.6-1.8,4.3-2,6.1-0.4l6,5.2L96.5,215c1.7-1.7,4.4-1.8,6.1-0.1
	c1.6,1.6,1.8,4.1,0.3,5.9L86.6,239c-1.6,1.8-4.3,1.9-6.1,0.4L71.3,231.4z"/>
<path fill="#4B90FF" d="M65.6,133.9c-1.8-1.6-2-4.3-0.4-6.1c1.6-1.8,4.3-2,6.1-0.4l6,5.2l13.5-15.1c1.6-1.8,4.3-1.9,6.1-0.3
	c1.8,1.6,1.9,4.3,0.4,6.1l0,0l-16.4,18.2c-1.6,1.7-4.2,1.9-6,0.4L65.6,133.9z"/>
</svg>
