<svg xmlns="http://www.w3.org/2000/svg" viewBox="0 0 150 150"><path d="M98.37,60.94,77.12,73.83l1.11,1.5,2.3-1.39V94.69H69.47V73.94l2.3,1.39,1.11-1.5L51.64,60.94l-21.16,14,1.08,1.47,2.3-1.51v39.05H71.07v1.62h7.86v-1.62h37.21v-39l2.3,1.51,1.08-1.47Z" fill="#62b9f4"/><path d="M98.37,68.39,77.12,81.28l1.11,1.49,2.3-1.38v20.74H69.47V81.39l2.3,1.38,1.11-1.49L51.64,68.39l-21.16,14,1.08,1.47,2.3-1.51v39.05H71.07V123h7.86v-1.62h37.21V82.32l2.3,1.51,1.08-1.47Z" fill="#2783f2"/><rect x="15" y="127.87" width="120" height="2" fill="#1f68dc"/><polygon points="98.36 76.41 77.12 89.3 78.23 90.8 80.53 89.42 80.53 110.16 69.47 110.16 69.47 89.42 71.77 90.8 72.88 89.3 51.63 76.41 30.48 90.38 31.56 91.85 33.86 90.34 33.86 129.39 116.14 129.39 116.14 90.34 118.44 91.85 119.52 90.38 98.36 76.41" fill="#1f68dc"/><path d="M98.35,94.69a3.23,3.23,0,1,1,3.23-3.23A3.23,3.23,0,0,1,98.35,94.69Z" fill="#fff"/><rect x="61.45" y="99.86" width="3.06" height="3" fill="#fff"/><rect x="61.45" y="103.45" width="3.06" height="5.18" fill="#fff"/><rect x="57.98" y="103.45" width="2.93" height="5.18" fill="#fff"/><rect x="57.98" y="99.86" width="2.93" height="3" fill="#fff"/><rect x="54.38" y="103.45" width="3.06" height="5.18" fill="#fff"/><rect x="54.38" y="99.86" width="3.06" height="3" fill="#fff"/><rect x="61.45" y="114.98" width="3.06" height="3" fill="#fff"/><rect x="61.45" y="118.57" width="3.06" height="5.18" fill="#fff"/><rect x="57.98" y="118.57" width="2.93" height="5.18" fill="#fff"/><rect x="57.98" y="114.98" width="2.93" height="3" fill="#fff"/><rect x="54.38" y="118.57" width="3.06" height="5.18" fill="#fff"/><rect x="54.38" y="114.98" width="3.06" height="3" fill="#fff"/><rect x="44.94" y="114.98" width="3.06" height="3" fill="#fff"/><rect x="44.94" y="118.57" width="3.06" height="5.18" fill="#fff"/><rect x="41.47" y="118.57" width="2.93" height="5.18" fill="#fff"/><rect x="41.47" y="114.98" width="2.93" height="3" fill="#fff"/><rect x="37.87" y="118.57" width="3.06" height="5.18" fill="#fff"/><rect x="37.87" y="114.98" width="3.06" height="3" fill="#fff"/><rect x="44.94" y="99.86" width="3.06" height="3" fill="#fff"/><rect x="44.94" y="103.45" width="3.06" height="5.18" fill="#fff"/><rect x="41.47" y="103.45" width="2.93" height="5.18" fill="#fff"/><rect x="41.47" y="99.86" width="2.93" height="3" fill="#fff"/><rect x="37.87" y="103.45" width="3.06" height="5.18" fill="#fff"/><rect x="37.87" y="99.86" width="3.06" height="3" fill="#fff"/><rect x="108.61" y="99.86" width="3.06" height="3" fill="#fff"/><rect x="108.61" y="103.45" width="3.06" height="5.18" fill="#fff"/><rect x="105.14" y="103.45" width="2.93" height="5.18" fill="#fff"/><rect x="105.14" y="99.86" width="2.93" height="3" fill="#fff"/><rect x="101.55" y="103.45" width="3.06" height="5.18" fill="#fff"/><rect x="101.55" y="99.86" width="3.06" height="3" fill="#fff"/><rect x="108.61" y="114.98" width="3.06" height="3" fill="#fff"/><rect x="108.61" y="118.57" width="3.06" height="5.18" fill="#fff"/><rect x="105.14" y="118.57" width="2.93" height="5.18" fill="#fff"/><rect x="105.14" y="114.98" width="2.93" height="3" fill="#fff"/><rect x="101.55" y="118.57" width="3.06" height="5.18" fill="#fff"/><rect x="101.55" y="114.98" width="3.06" height="3" fill="#fff"/><rect x="92.1" y="114.98" width="3.06" height="3" fill="#fff"/><rect x="92.1" y="118.57" width="3.06" height="5.18" fill="#fff"/><rect x="88.63" y="118.57" width="2.93" height="5.18" fill="#fff"/><rect x="88.63" y="114.98" width="2.93" height="3" fill="#fff"/><rect x="85.04" y="118.57" width="3.06" height="5.18" fill="#fff"/><rect x="85.04" y="114.98" width="3.06" height="3" fill="#fff"/><rect x="92.1" y="99.86" width="3.06" height="3" fill="#fff"/><rect x="92.1" y="103.45" width="3.06" height="5.18" fill="#fff"/><rect x="88.63" y="103.45" width="2.93" height="5.18" fill="#fff"/><rect x="88.63" y="99.86" width="2.93" height="3" fill="#fff"/><rect x="85.04" y="103.45" width="3.06" height="5.18" fill="#fff"/><rect x="85.04" y="99.86" width="3.06" height="3" fill="#fff"/><path d="M48.42,91.46a3.23,3.23,0,1,1,3.23,3.23A3.23,3.23,0,0,1,48.42,91.46Z" fill="#fff"/><path d="M71.07,120.37V131h7.86V120.37S75,116.91,71.07,120.37Z" fill="#fff"/><path d="M133.63,116.57c0-1.72-1.14-5.94-2.28-9.23s-2.61-6.93-3.7-6.93-2.62,3.77-3.71,6.93-2.28,7.51-2.28,9.23a6,6,0,0,0,5.49,6v6.84h1v-6.84A6,6,0,0,0,133.63,116.57Z" fill="#1f68dc"/><line x1="21.89" y1="122.1" x2="21.89" y2="129.29" fill="none" stroke="#1f68dc" stroke-miterlimit="10"/><circle cx="21.89" cy="116.14" r="4.6" fill="#1f68dc"/><circle cx="24.69" cy="121.52" r="4.6" fill="#1f68dc"/><circle cx="19.08" cy="121.52" r="4.6" fill="#1f68dc"/><path d="M80.71,22.77a5.15,5.15,0,0,1,9-3.41A3.67,3.67,0,0,1,91.2,19a3.74,3.74,0,0,1,3.31,2,3.34,3.34,0,0,1,1.72-.48,3.44,3.44,0,0,1,3.21,2.2Z" fill="#a6dfff"/><path d="M16.84,35.62a8,8,0,0,1,8-7.92,8,8,0,0,1,3.18.66,5.76,5.76,0,0,1,10.88,2.55l.22,0a6,6,0,0,1,5.86,4.73Z" fill="#62b9f4"/><path d="M66.82,49.15a4.9,4.9,0,0,1,9.58,0Z" fill="#62b9f4"/><polygon points="98.36 76.41 77.12 89.3 78.23 90.8 80.53 89.42 80.53 110.16 69.47 110.16 69.47 89.42 71.77 90.8 72.88 89.3 51.63 76.41 30.48 90.38 31.56 91.85 33.86 90.34 33.86 129.39 116.14 129.39 116.14 90.34 118.44 91.85 119.52 90.38 98.36 76.41" fill="#1f68dc"/><path d="M98.35,94.69a3.23,3.23,0,1,1,3.23-3.23A3.23,3.23,0,0,1,98.35,94.69Z" fill="#fff"/><rect x="61.45" y="99.86" width="3.06" height="3" fill="#fff"/><rect x="61.45" y="103.45" width="3.06" height="5.18" fill="#fff"/><rect x="57.98" y="103.45" width="2.93" height="5.18" fill="#fff"/><rect x="57.98" y="99.86" width="2.93" height="3" fill="#fff"/><rect x="54.38" y="103.45" width="3.06" height="5.18" fill="#fff"/><rect x="54.38" y="99.86" width="3.06" height="3" fill="#fff"/><rect x="61.45" y="114.98" width="3.06" height="3" fill="#fff"/><rect x="61.45" y="118.57" width="3.06" height="5.18" fill="#fff"/><rect x="57.98" y="118.57" width="2.93" height="5.18" fill="#fff"/><rect x="57.98" y="114.98" width="2.93" height="3" fill="#fff"/><rect x="54.38" y="118.57" width="3.06" height="5.18" fill="#fff"/><rect x="54.38" y="114.98" width="3.06" height="3" fill="#fff"/><rect x="44.94" y="114.98" width="3.06" height="3" fill="#fff"/><rect x="44.94" y="118.57" width="3.06" height="5.18" fill="#fff"/><rect x="41.47" y="118.57" width="2.93" height="5.18" fill="#fff"/><rect x="41.47" y="114.98" width="2.93" height="3" fill="#fff"/><rect x="37.87" y="118.57" width="3.06" height="5.18" fill="#fff"/><rect x="37.87" y="114.98" width="3.06" height="3" fill="#fff"/><rect x="44.94" y="99.86" width="3.06" height="3" fill="#fff"/><rect x="44.94" y="103.45" width="3.06" height="5.18" fill="#fff"/><rect x="41.47" y="103.45" width="2.93" height="5.18" fill="#fff"/><rect x="41.47" y="99.86" width="2.93" height="3" fill="#fff"/><rect x="37.87" y="103.45" width="3.06" height="5.18" fill="#fff"/><rect x="37.87" y="99.86" width="3.06" height="3" fill="#fff"/><rect x="108.61" y="99.86" width="3.06" height="3" fill="#fff"/><rect x="108.61" y="103.45" width="3.06" height="5.18" fill="#fff"/><rect x="105.14" y="103.45" width="2.93" height="5.18" fill="#fff"/><rect x="105.14" y="99.86" width="2.93" height="3" fill="#fff"/><rect x="101.55" y="103.45" width="3.06" height="5.18" fill="#fff"/><rect x="101.55" y="99.86" width="3.06" height="3" fill="#fff"/><rect x="108.61" y="114.98" width="3.06" height="3" fill="#fff"/><rect x="108.61" y="118.57" width="3.06" height="5.18" fill="#fff"/><rect x="105.14" y="118.57" width="2.93" height="5.18" fill="#fff"/><rect x="105.14" y="114.98" width="2.93" height="3" fill="#fff"/><rect x="101.55" y="118.57" width="3.06" height="5.18" fill="#fff"/><rect x="101.55" y="114.98" width="3.06" height="3" fill="#fff"/><rect x="92.1" y="114.98" width="3.06" height="3" fill="#fff"/><rect x="92.1" y="118.57" width="3.06" height="5.18" fill="#fff"/><rect x="88.63" y="118.57" width="2.93" height="5.18" fill="#fff"/><rect x="88.63" y="114.98" width="2.93" height="3" fill="#fff"/><rect x="85.04" y="118.57" width="3.06" height="5.18" fill="#fff"/><rect x="85.04" y="114.98" width="3.06" height="3" fill="#fff"/><rect x="92.1" y="99.86" width="3.06" height="3" fill="#fff"/><rect x="92.1" y="103.45" width="3.06" height="5.18" fill="#fff"/><rect x="88.63" y="103.45" width="2.93" height="5.18" fill="#fff"/><rect x="88.63" y="99.86" width="2.93" height="3" fill="#fff"/><rect x="85.04" y="103.45" width="3.06" height="5.18" fill="#fff"/><rect x="85.04" y="99.86" width="3.06" height="3" fill="#fff"/><path d="M48.42,91.46a3.23,3.23,0,1,1,3.23,3.23A3.23,3.23,0,0,1,48.42,91.46Z" fill="#fff"/><path d="M71.07,120.37V131h7.86V120.37S75,116.91,71.07,120.37Z" fill="#fff"/><path d="M111.69,36.56l.56-1.29a.88.88,0,0,1-.26-.71c.06-.23.33-.32.72-.33l.57-1.31a.26.26,0,0,1,.34-.13l.08,0a.26.26,0,0,1,.14.35l-.48,1.09a35.86,35.86,0,0,1,6.3,1.94l.15.07,1.41-1.41s2.83,1.18,2.87,3.54l2.83,1.4s1.45-1.37,1.45-1.37,0,0,0,0l.78.23s0,0,0,.07-.35,1.84-.47,2.27c0,0-8.83-1.15-10.92-2.22,0,0-.59-.28-1.38-.69l-.23.53a.8.8,0,0,1,.19.88.79.79,0,0,1-1,.4.78.78,0,0,1-.4-1,.8.8,0,0,1,.78-.46l.24-.56a19.56,19.56,0,0,1-3.27-2.1l-.47,1.06a.26.26,0,0,1-.34.14l-.08,0A.25.25,0,0,1,111.69,36.56Z" fill="#2783f2"/><rect x="115.28" y="36.74" width="5.48" height="0.5" rx="0.23" transform="translate(211.39 118.1) rotate(-156.42)" fill="#fff"/><path d="M123.18,38a3.28,3.28,0,0,0-1.87-2.23l-.87.85Z" fill="#fff"/></svg>