<svg xmlns="http://www.w3.org/2000/svg" viewBox="0 0 150 150"><rect x="15" y="120.41" width="120" height="2" fill="#1f68dc"/><path d="M128.91,55.93a8.75,8.75,0,0,0-15.25-5.81A6.32,6.32,0,0,0,105.44,53a5.81,5.81,0,0,0-8.39,2.94Z" fill="#62b9f4"/><path d="M58.29,65.85A2.84,2.84,0,0,1,63.23,64a2.14,2.14,0,0,1,.84-.18,2.06,2.06,0,0,1,1.82,1.11,1.89,1.89,0,0,1,2.72.95Z" fill="#62b9f4"/><circle cx="37.25" cy="37.53" r="5.72" fill="#ffc107"/><path d="M59.2,44a7.4,7.4,0,0,0-10.36-6.75,5.37,5.37,0,0,0-10.13,2.37l-.2,0A5.58,5.58,0,0,0,33.06,44Z" fill="#62b9f4"/><path d="M95.8,31.46a4.9,4.9,0,0,0-9.58,0Z" fill="#62b9f4"/><polygon points="65.13 79.44 49.73 94.84 49.73 116.19 80.53 116.19 80.53 94.84 65.13 79.44" fill="#62b9f4"/><rect x="72.85" y="83.97" width="5.12" height="8.94" fill="#62b9f4"/><polygon points="97.73 90.2 97.73 82.4 91.94 82.4 91.94 84.41 81.23 73.7 61.02 93.91 61.02 101.45 44.56 101.45 44.56 121.94 61.02 121.94 65.05 121.94 101.44 121.94 101.44 93.91 97.73 90.2" fill="#1f68dc"/><rect x="86.47" y="98.08" width="7.48" height="7.48" transform="translate(180.43 203.63) rotate(180)" fill="#fff"/><rect x="86.47" y="108.27" width="7.48" height="7.48" transform="translate(180.43 224.01) rotate(180)" fill="#fff"/><rect x="76.28" y="98.08" width="7.48" height="7.48" transform="translate(181.84 21.79) rotate(90)" fill="#fff"/><rect x="76.28" y="108.27" width="7.48" height="7.48" transform="translate(192.03 31.98) rotate(90)" fill="#fff"/><rect x="61.39" y="108.27" width="7.48" height="7.48" transform="translate(130.26 224.01) rotate(180)" fill="#fff"/><rect x="51.2" y="108.27" width="7.48" height="7.48" transform="translate(166.95 57.07) rotate(90)" fill="#fff"/><ellipse cx="114.65" cy="110.93" rx="5.85" ry="7.3" fill="#1f68dc"/><line x1="114.65" y1="116.11" x2="114.65" y2="121.22" fill="none" stroke="#1f68dc" stroke-miterlimit="10"/><line x1="28.92" y1="114.36" x2="28.92" y2="121.55" fill="none" stroke="#1f68dc" stroke-miterlimit="10"/><circle cx="28.92" cy="108.4" r="4.6" fill="#1f68dc"/><circle cx="31.73" cy="113.78" r="4.6" fill="#1f68dc"/><circle cx="26.12" cy="113.78" r="4.6" fill="#1f68dc"/><circle cx="124.97" cy="116.34" r="4.52" fill="#1f68dc"/></svg>