<svg xmlns="http://www.w3.org/2000/svg" viewBox="0 0 98 25.98"><path d="M42.44,9V4.87h-3.1V5.94L33.62.22,22.82,11v4H14V26h30.4V11ZM21.57,22.69h-4v-4h4Zm5.44,0H23v-4h4Zm8,0H31v-4h4Zm0-5.44H31v-4h4Zm5.45,5.44h-4v-4h4Zm0-5.44h-4v-4h4Z" fill="#fff"/><path d="M77.27.22,66.47,11V26h21.6V11Zm-.72,22.47h-4v-4h4Zm0-5.44h-4v-4h4ZM82,22.69H78v-4h4Zm0-5.44H78v-4h4Z" fill="#fff"/><path d="M55.31,19.53c0-2.53-1.65-4.59-3.68-4.59S48,17,48,19.53c0,2.32,1.39,4.22,3.18,4.53V26h1V24.06C53.92,23.75,55.31,21.85,55.31,19.53Z" fill="#fff"/><path d="M7.46,18.42a2.54,2.54,0,0,0,.09-.68,2.9,2.9,0,0,0-5.79,0,3,3,0,0,0,.09.68,2.89,2.89,0,0,0,1,5.59,2.86,2.86,0,0,0,1.27-.3V26h1V23.71a2.82,2.82,0,0,0,1.26.3,2.89,2.89,0,0,0,1-5.59Z" fill="#fff"/><circle cx="58.11" cy="23" r="2.84" fill="#fff"/><path d="M98,22c0-1.78-1.44-6.52-3.22-6.52S91.55,20.21,91.55,22a3.2,3.2,0,0,0,2.76,3.17V26h1v-.84A3.22,3.22,0,0,0,98,22Z" fill="#fff"/></svg>